PathFileType	4	(X/Y/Z)	C:/Users/opensim2020/Desktop/walking_exp_matlab/subject02_walking09_straight_02.trc																																																																																																																												
DataRate	CameraRate	NumFrames	NumMarkers	Units	OrigDataRate	OrigDataStartFrame	OrigNumFrames																																																																																																																								
100	100	4	42	mm	100	1377	436																																																																																																																								
Frame#	Time	LFHD			RFHD			LBHD			RBHD			C7			T10			CLAV			STRN			RBAK			LSHO			LUPA			LELB			LFRM			LWRA			LWRB			LFIN			RSHO			RUPA			RELB			RFRM			RWRA			RWRB			RFIN			LASI			RASI			LPSI			RPSI			LTHI			LKNE			LTIB			LANK			LHEE			LTOE			RTHI			RKNE			RTIB			RANK			RHEE			RTOE			*39			*40			*41		
		X1	Y1	Z1	X2	Y2	Z2	X3	Y3	Z3	X4	Y4	Z4	X5	Y5	Z5	X6	Y6	Z6	X7	Y7	Z7	X8	Y8	Z8	X9	Y9	Z9	X10	Y10	Z10	X11	Y11	Z11	X12	Y12	Z12	X13	Y13	Z13	X14	Y14	Z14	X15	Y15	Z15	X16	Y16	Z16	X17	Y17	Z17	X18	Y18	Z18	X19	Y19	Z19	X20	Y20	Z20	X21	Y21	Z21	X22	Y22	Z22	X23	Y23	Z23	X24	Y24	Z24	X25	Y25	Z25	X26	Y26	Z26	X27	Y27	Z27	X28	Y28	Z28	X29	Y29	Z29	X30	Y30	Z30	X31	Y31	Z31	X32	Y32	Z32	X33	Y33	Z33	X34	Y34	Z34	X35	Y35	Z35	X36	Y36	Z36	X37	Y37	Z37	X38	Y38	Z38	X39	Y39	Z39	X40	Y40	Z40	X41	Y41	Z41	X42	Y42	Z42
																																																																																																																															
164	1.63	-939.52484	1758.74609	-1393.73865	-942.31049	1735.4342	-1251.77356	-1064.82031	1676.26733	-1408.0741	-1079.61121	1651.57825	-1267.8717	-1115.59058	1538.50891	-1327.05225	-1172.79382	1265.01318	-1303.57983	-980.89471	1465.74219	-1356.17212	-932.23883	1292.68945	-1349.92859	-1166.1134	1369.18079	-1247.11133	-1074.31067	1505.93066	-1514.36316	-1110.84937	1304.40161	-1584.11963	-1120.47827	1162.39026	-1593.32446	-1100.38647	1031.56323	-1609.56104	-1021.0072	914.70044	-1595.18408	-1073.61389	911.03076	-1617.17871	-1047.67957	848.8446	-1622.79724	-1009.61676	1507.75537	-1154.6709	-1018.5542	1320.53687	-1058.82007	-998.23004	1175.12939	-1038.54956	-955.04193	1062.3042	-1021.44995	-895.37708	942.17896	-1042.9635	-938.00513	933.96161	-1006.2829	-892.29382	877.08118	-1005.67975	-967.61627	1000.92938	-1469.10718	-929.46161	985.38898	-1216.33105	-1163.16675	1045.08398	-1358.6908	-1150.07104	1045.05188	-1243.75061	-993.49158	695.77094	-1540.08789	-973.57666	506.20679	-1526.73279	-1080.85767	351.39224	-1509.823	-1139.66663	134.47801	-1485.72485	-1161.71301	110.51212	-1425.64856	-1017.27618	59.9636	-1546.17957	-999.79474	677.19336	-1157.15051	-1013.05005	468.73956	-1208.2301	-1060.86304	285.43091	-1206.50464	-1092.16406	95.92103	-1250.45813	-1134.15491	43.85715	-1304.20801	-940.29779	42.68396	-1249.53149	-1047.21008	1814.25452	-1303.79602	-2846.05371	1033.99731	3356.9668	NaN	NaN	NaN
165	1.64	-931.94879	1758.17786	-1395.58081	-934.52222	1735.56091	-1253.7395	-1057.53247	1676.07275	-1409.32605	-1071.97339	1651.87012	-1268.99854	-1108.30566	1538.57813	-1327.70752	-1166.07922	1265.09155	-1304.59949	-973.76001	1465.74817	-1357.20642	-925.20294	1292.55774	-1349.95581	-1158.75952	1369.45459	-1247.44849	-1067.40356	1505.28345	-1514.77661	-1106.6272	1304.22314	-1584.17932	-1117.37524	1162.13684	-1592.56445	-1099.44885	1031.02673	-1608.64612	-1022.00861	913.26569	-1595.01733	-1074.87964	910.15295	-1616.11768	-1049.92712	847.4798	-1621.9574	-1002.11725	1508.2677	-1155.5083	-1009.23871	1321.05872	-1059.02209	-987.42371	1175.896	-1038.61023	-943.10272	1063.34204	-1022.23602	-880.8045	944.36798	-1043.82397	-924.03522	935.47681	-1006.8656	-877.59448	879.05603	-1006.83789	-959.64642	1001.43292	-1469.0835	-923.70587	984.9444	-1215.92639	-1156.77771	1045.27112	-1360.39368	-1144.03125	1044.86768	-1245.32874	-982.79797	697.02466	-1541.29797	-961.62811	506.57574	-1527.18591	-1063.3877	347.25229	-1512.65051	-1113.66589	127.70377	-1491.18201	-1135.4397	102.51838	-1431.39539	-987.21838	58.28865	-1550.0647	-996.47345	676.92584	-1157.73804	-1010.8938	468.49237	-1208.70544	-1059.60681	285.47913	-1206.89465	-1092.0155	96.05634	-1250.6615	-1133.65063	43.70812	-1304.46326	-940.31018	42.65636	-1249.38489	-1039.22009	1814.41724	-1305.60059	NaN	NaN	NaN	NaN	NaN	NaN
166	1.65	-924.42371	1757.66992	-1397.65027	-926.62311	1735.323	-1255.43103	-1050.29272	1675.76038	-1410.64099	-1064.43542	1652.18811	-1270.20801	-1101.07776	1538.55042	-1328.51465	-1159.39429	1265.14172	-1305.7196	-966.57965	1465.50769	-1357.98413	-918.14862	1292.06885	-1349.76233	-1151.95752	1369.59326	-1248.15674	-1060.69897	1504.89734	-1515.81848	-1102.23962	1303.9104	-1584.32458	-1114.27197	1161.95459	-1592.06653	-1098.5343	1030.51318	-1607.84888	-1022.83746	911.56396	-1594.87317	-1076.17822	909.28375	-1615.23181	-1052.12903	846.23785	-1621.26526	-994.78821	1508.58545	-1156.36377	-999.79773	1321.37817	-1059.4458	-976.48462	1176.4834	-1039.01367	-930.40723	1064.66675	-1022.59058	-867.76648	946.34363	-1045.21082	-910.22552	936.87244	-1007.59888	-863.18597	881.10156	-1008.00031	-951.73053	1001.7453	-1469.22717	-917.88861	984.45007	-1215.61841	-1149.33691	1045.04456	-1361.92932	-1137.99207	1044.6637	-1246.98047	-972.15045	697.76617	-1542.0874	-950.03772	506.82376	-1527.7312	-1045.95972	343.07123	-1515.54907	-1087.40466	121.44951	-1496.77051	-1109.12793	95.18797	-1437.36401	-957.35919	57.0959	-1553.80408	-993.05939	676.53992	-1158.41223	-1008.29401	468.42795	-1209.19507	-1058.3573	285.47922	-1207.33411	-1091.86292	96.1788	-1250.89465	-1133.65393	43.7606	-1304.63904	-940.63281	42.51634	-1249.35388	-1031.29504	1814.4502	-1307.51807	-2845.85645	1034.00891	3356.95093	NaN	NaN	NaN
167	1.66	-916.83362	1756.77808	-1399.38049	-918.70612	1735.10938	-1257.41431	-1043.02368	1675.29407	-1412.01611	-1056.823	1652.328	-1271.44604	-1093.81592	1538.41064	-1329.40002	-1152.67102	1265.08704	-1306.94873	-959.34705	1464.96094	-1358.53027	-911.18066	1291.87817	-1350.16199	-1144.97266	1369.64124	-1248.73596	-1053.77417	1504.10913	-1516.51855	-1097.52063	1303.29065	-1584.0564	-1111.078	1161.67432	-1591.68311	-1097.505	1030.03638	-1607.29492	-1023.54419	909.71295	-1594.3739	-1077.03198	908.40259	-1614.38489	-1054.27014	845.03992	-1620.72534	-987.54608	1508.81946	-1157.28113	-990.87018	1321.75342	-1060.28137	-965.15082	1176.95837	-1040.01172	-918.2699	1065.88831	-1023.42017	-854.61011	948.03064	-1046.37549	-896.42242	938.23639	-1008.38275	-848.65613	882.94092	-1009.15234	-943.85333	1001.80676	-1469.41235	-911.99237	983.97241	-1215.37146	-1142.37793	1044.77991	-1363.68396	-1131.93066	1044.30542	-1248.74475	-962.03693	698.76556	-1543.0675	-938.65784	506.92664	-1528.59253	-1028.32056	338.88107	-1518.56824	-1060.96667	115.34827	-1502.07764	-1082.87073	88.41544	-1443.25696	-927.71912	56.30397	-1557.24976	-989.24683	676.17047	-1158.79028	-1005.82581	467.95703	-1209.33411	-1057.16028	285.52292	-1207.745	-1091.71692	96.40839	-1251.15662	-1133.63623	43.90759	-1304.87122	-940.65588	42.55046	-1249.23352	-1023.41125	1814.39417	-1309.53394	-2845.10205	1034.01147	3360.22949	NaN	NaN	NaN
